<?xml version="1.0" encoding="UTF-8"?>
<svg width="263px" height="69px" viewBox="0 0 263 69" version="1.1" xmlns="http://www.w3.org/2000/svg" xmlns:xlink="http://www.w3.org/1999/xlink">
    <title>Logo Copy 2</title>
    <g id="!-FOR-JON" stroke="none" stroke-width="1" fill="none" fill-rule="evenodd">
        <g id="Copy-Copy" transform="translate(-160.000000, -12613.000000)" fill="#0F0F0F">
            <path d="M185.577544,12673.3439 C176.143977,12673.3439 170.691376,12664.8989 170.691376,12654.3427 C170.691376,12643.5733 175.932246,12635.6561 185.472727,12635.6561 C192.522745,12635.6561 197.216469,12640.3958 198.136766,12647.2679 L209.029391,12647.2679 C207.645801,12635.331 199.071737,12627 185.263092,12627 C169.016393,12627 160,12639.0341 160,12654.5538 C160,12669.8604 169.330846,12682 185.472727,12682 C199.415538,12682 207.486479,12674.294 210,12662.0466 L199.09899,12662.0466 C197.945998,12668.6992 193.858119,12673.3439 185.577544,12673.3439 L185.577544,12673.3439 Z M224,12627.8421 L233.203166,12627.8421 L232.604654,12638.0522 L233.79957,12638.0522 C237.211506,12630.9093 243.580172,12627 252.030984,12627 C262.357412,12627 271,12633.5261 271,12646.2624 L271,12681 L260.566093,12681 L260.566093,12647.315 C260.566093,12640.0521 255.824366,12636.0523 249.080576,12636.0523 C240.440095,12636.0523 234.539279,12644.2625 234.539279,12650.6833 L234.539279,12681 L224,12681 L224,12627.8421 Z M291.236209,12668.1331 L291.236209,12637.2714 L280,12637.2714 L280,12628.1704 L291.236209,12628.1704 L291.130127,12613 L301.846535,12613 L301.846535,12628.1704 L322,12628.1704 L322,12637.2714 L301.846535,12637.2714 L301.846535,12667.5054 C301.846535,12670.5391 303.013437,12671.6898 306.30198,12671.6898 L322,12671.6898 L322,12681 L305.559406,12681 C294.312588,12681 291.236209,12677.4433 291.236209,12668.1331 L291.236209,12668.1331 Z M344.171491,12681 L344.171491,12637.1303 L333,12637.1303 L333,12628 L353.383331,12628 L352.784256,12638.1798 L353.980297,12638.1798 C355.667834,12633.772 358.517661,12628 369.69759,12628 L380,12628 L380,12637.1303 L370.855662,12637.1303 C362.736502,12637.1303 354.613123,12639.2293 354.613123,12652.3476 L354.613123,12681 L344.171491,12681 Z M400.54524,12667.5054 C400.54524,12670.5391 401.702875,12671.6898 404.971246,12671.6898 L423,12671.6898 L423,12681 L404.235335,12681 C393.057508,12681 390,12677.4433 390,12668.1331 L390,12613 L400.54524,12613 L400.54524,12667.5054 Z" id="Logo-Copy-2"></path>
        </g>
    </g>
</svg>